<svg width="200" height="201" viewBox="0 0 200 201" fill="none" xmlns="http://www.w3.org/2000/svg">
<g id="Error 1">
<g id="Background_Complete">
<g id="Group">
<path id="Vector" d="M200 153.36H0V153.44H200V153.36Z" fill="#EBEBEB"/>
<path id="Vector_2" d="M179.959 159.8H166.719V159.88H179.959V159.8Z" fill="#EBEBEB"/>
<path id="Vector_3" d="M132.48 160.88H129V160.96H132.48V160.88Z" fill="#EBEBEB"/>
<path id="Vector_4" d="M166.321 156.081H158.641V156.161H166.321V156.081Z" fill="#EBEBEB"/>
<path id="Vector_5" d="M38.28 156.76H21V156.84H38.28V156.76Z" fill="#EBEBEB"/>
<path id="Vector_6" d="M44.3598 156.76H41.8398V156.84H44.3598V156.76Z" fill="#EBEBEB"/>
<path id="Vector_7" d="M90.0816 158.44H52.6016V158.52H90.0816V158.44Z" fill="#EBEBEB"/>
<path id="Vector_8" d="M94.8013 135.52H17.5613C16.3213 135.52 15.2812 134.48 15.2812 133.24V24.6804C15.2812 23.4404 16.3213 22.4004 17.5613 22.4004H94.8013C96.0413 22.4004 97.0813 23.4404 97.0813 24.6804V133.24C97.0813 134.48 96.0813 135.52 94.8013 135.52ZM17.5613 22.4804C16.3613 22.4804 15.3613 23.4404 15.3613 24.6804V133.24C15.3613 134.44 16.3213 135.44 17.5613 135.44H94.8013C96.0013 135.44 97.0013 134.48 97.0013 133.24V24.6804C97.0013 23.4804 96.0413 22.4804 94.8013 22.4804H17.5613Z" fill="#EBEBEB"/>
<path id="Vector_9" d="M181.321 135.52H104.081C102.841 135.52 101.801 134.48 101.801 133.24V24.6804C101.801 23.4404 102.841 22.4004 104.081 22.4004H181.321C182.561 22.4004 183.601 23.4404 183.601 24.6804V133.24C183.601 134.48 182.601 135.52 181.321 135.52ZM104.081 22.4804C102.881 22.4804 101.881 23.4404 101.881 24.6804V133.24C101.881 134.44 102.841 135.44 104.081 135.44H181.321C182.521 135.44 183.521 134.48 183.521 133.24V24.6804C183.521 23.4804 182.561 22.4804 181.321 22.4804H104.081Z" fill="#EBEBEB"/>
</g>
<g id="Group_2">
<g id="Group_3">
<path id="Vector_10" d="M157.243 30.8804H40.5234V85.4804H157.243V30.8804Z" fill="#E6E6E6"/>
<path id="Vector_11" d="M158.964 30.8804H41.3242V85.4804H158.964V30.8804Z" fill="#F0F0F0"/>
<path id="Vector_12" d="M157.243 85.4805H40.5234V88.2805H157.243V85.4805Z" fill="#E6E6E6"/>
<path id="Vector_13" d="M161.925 85.4805H44.2852V88.2805H161.925V85.4805Z" fill="#F0F0F0"/>
<path id="Vector_14" d="M156.535 83.0076V33.3276L43.8151 33.3276L43.8151 83.0076L156.535 83.0076Z" fill="#FAFAFA"/>
<path id="Vector_15" d="M55.8828 83.0003L62.7628 33.3203H73.4428L66.6028 83.0003H55.8828Z" fill="white"/>
<path id="Vector_16" d="M44.9217 80.5602C44.8417 80.5602 44.7617 80.4803 44.7617 80.4002V34.9203C44.7617 34.8403 44.8417 34.7603 44.9217 34.7603C45.0017 34.7603 45.0817 34.8403 45.0817 34.9203V80.4002C45.1217 80.4803 45.0417 80.5602 44.9217 80.5602Z" fill="#F0F0F0"/>
<path id="Vector_17" d="M68.8828 83.0003L75.7228 33.3203H79.9228L73.0428 83.0003H68.8828Z" fill="white"/>
<path id="Vector_18" d="M156.543 83.0003V33.3203H156.223V83.0003H156.543Z" fill="#E6E6E6"/>
<path id="Vector_19" opacity="0.6" d="M159.565 37.0403H42.8445L42.6445 34.2803H159.365L159.565 37.0403Z" fill="#EBEBEB"/>
<path id="Vector_20" opacity="0.6" d="M159.565 41.5603H42.8445L42.6445 38.8003H159.365L159.565 41.5603Z" fill="#EBEBEB"/>
<path id="Vector_21" opacity="0.6" d="M159.565 46.0803H42.8445L42.6445 43.3203H159.365L159.565 46.0803Z" fill="#EBEBEB"/>
<path id="Vector_22" opacity="0.6" d="M159.565 50.6003H42.8445L42.6445 47.8403H159.365L159.565 50.6003Z" fill="#EBEBEB"/>
<path id="Vector_23" opacity="0.6" d="M159.565 55.1204H42.8445L42.6445 52.3604H159.365L159.565 55.1204Z" fill="#EBEBEB"/>
<path id="Vector_24" opacity="0.6" d="M159.565 59.6404H42.8445L42.6445 56.8804H159.365L159.565 59.6404Z" fill="#EBEBEB"/>
</g>
<g id="Group_4">
<g id="Group_5">
<path id="Vector_25" d="M175.601 99.2002H157.801V153.36H175.601V99.2002Z" fill="#E6E6E6"/>
<path id="Vector_26" d="M170.844 153.36H175.604V145.88H165.844L170.844 153.36Z" fill="#FAFAFA"/>
<path id="Vector_27" d="M127.042 99.2002H109.242V153.36H127.042V99.2002Z" fill="#E6E6E6"/>
<path id="Vector_28" d="M175.603 99.2002H122.883V150.8H175.603V99.2002Z" fill="#FAFAFA"/>
<path id="Vector_29" d="M127.643 153.36H122.883V145.88H132.643L127.643 153.36Z" fill="#FAFAFA"/>
<path id="Vector_30" d="M171.883 118.44H126.562V131.36H171.883V118.44Z" fill="#F0F0F0"/>
<path id="Vector_31" d="M171.883 134.08H126.562V147H171.883V134.08Z" fill="#F0F0F0"/>
<path id="Vector_32" d="M162.924 119.8H135.564C134.524 119.8 133.684 118.96 133.684 117.92V117.28H164.804V117.92C164.804 118.96 163.964 119.8 162.924 119.8Z" fill="#FAFAFA"/>
<path id="Vector_33" d="M171.883 102.76H126.562V115.68H171.883V102.76Z" fill="#F0F0F0"/>
<path id="Vector_34" d="M162.924 104.12H135.564C134.524 104.12 133.684 103.28 133.684 102.24V101.6H164.804V102.24C164.804 103.28 163.964 104.12 162.924 104.12Z" fill="#FAFAFA"/>
<path id="Vector_35" d="M162.924 135.48H135.564C134.524 135.48 133.684 134.64 133.684 133.6V132.96H164.804V133.6C164.804 134.64 163.964 135.48 162.924 135.48Z" fill="#FAFAFA"/>
</g>
</g>
<g id="Group_6">
<path id="Vector_36" d="M21.3616 110.76C22.3616 107.92 30.1616 111.8 33.3616 116.521C35.4816 119.68 36.7616 123.04 37.3616 127.521C37.2816 122.36 37.2016 116.841 37.1216 111.641C36.4816 110.321 35.0016 107.361 33.9616 104.96C30.4416 97.0405 22.0816 94.0805 19.2016 89.0805C15.4016 82.5205 15.4416 72.6805 18.6416 69.1205C21.4416 66.0405 30.7216 86.8805 31.7616 89.2405C35.3616 97.2405 36.4016 103.201 37.0816 108.96C37.0016 104.08 36.9216 99.5605 36.8816 96.0805C36.6816 84.7605 36.4416 81.1205 36.3216 80.0005C35.9216 79.4405 35.4816 78.8005 35.2016 78.4805C32.9616 75.6005 27.9616 72.1605 25.4816 67.9605C21.8416 61.8405 22.4416 54.4805 25.0016 51.7605C27.6816 48.9205 32.4016 55.6405 34.8816 62.3605C37.4016 69.0405 36.3216 75.4805 37.0016 81.0405C37.1616 82.1205 37.2816 86.2805 37.4416 92.0405C38.2016 85.8405 39.7216 81.7205 42.5216 77.8405C45.9616 73.0805 48.9616 67.3205 51.8016 68.0405C54.6416 68.8005 53.1216 76.4405 50.8816 81.8005C48.8816 86.6005 39.0016 91.3605 37.5616 95.2005C37.7216 103 37.8816 112.841 38.0016 122.041C38.7616 117.281 38.2416 116.881 41.4416 109.641C43.3216 105.321 51.1216 100 52.0416 102.96C52.9616 105.881 51.5616 111.521 48.6416 115.481C46.2816 118.641 41.0416 118.641 39.8016 120.601C39.5216 121.041 38.5616 122.801 38.0416 123.841C38.1616 135.041 38.2416 144.96 38.1616 148.32L37.6416 148.36C37.6816 147.48 37.6016 141.801 37.5216 134.241C36.2416 130.241 27.6416 127.881 25.0016 123.681C22.1616 119.281 20.1616 114.16 21.3616 110.76Z" fill="#E6E6E6"/>
<g id="Group_7">
<path id="Vector_37" d="M29.4423 153.36H45.9223C46.8423 153.36 47.6023 152.72 47.7623 151.84L48.9223 146.08H26.4023L27.5623 151.84C27.7623 152.72 28.5223 153.36 29.4423 153.36Z" fill="#F0F0F0"/>
<path id="Vector_38" d="M25.9627 148.32H49.4427C50.0027 148.32 50.4827 147.88 50.5227 147.32L51.0027 143.04C51.0827 142.4 50.5627 141.8 49.9227 141.8H25.4827C24.8427 141.8 24.3227 142.36 24.4027 143.04L24.8827 147.32C24.9227 147.88 25.4027 148.32 25.9627 148.32Z" fill="#F0F0F0"/>
</g>
</g>
<g id="Group_8">
<g id="Group_9">
<path id="Vector_39" d="M71.123 127.44H57.043V153.36H71.123V127.44Z" fill="#E0E0E0"/>
<path id="Vector_40" d="M107.042 153.36H59.8819L54.9219 118.2H102.082L107.042 153.36Z" fill="#E6E6E6"/>
<path id="Vector_41" d="M113.921 153.36H61.7608L56.8008 118.2H108.961L113.921 153.36Z" fill="#F0F0F0"/>
<path id="Vector_42" d="M66.8436 147.88L62.6836 123.68H103.844L108.044 147.88H66.8436Z" fill="white"/>
<path id="Vector_43" d="M84.5625 147.88L70.5625 123.68H74.9625L88.9225 147.88H84.5625Z" fill="#FAFAFA"/>
<path id="Vector_44" d="M90.8008 147.88L76.8008 123.68H84.2808L98.2808 147.88H90.8008Z" fill="#FAFAFA"/>
</g>
</g>
</g>
</g>
<g id="Shadow_1_">
<path id="_x3C_Path_x3E__280_" d="M100.001 171.4C142.837 171.4 177.561 169.377 177.561 166.88C177.561 164.384 142.837 162.36 100.001 162.36C57.1662 162.36 22.4414 164.384 22.4414 166.88C22.4414 169.377 57.1662 171.4 100.001 171.4Z" fill="#F5F5F5"/>
</g>
<g id="Warning">
<g id="Group_10">
<g id="Group_11">
<path id="Vector_45" d="M30.9189 89.0005C30.8389 89.0005 30.7589 88.9205 30.7589 88.8405L29.8789 78.1604C29.8789 78.0804 29.9589 78.0004 30.0389 77.9604C30.1189 77.9604 30.1989 78.0405 30.2389 78.1205L31.1189 88.8005C31.0789 88.9205 30.9989 89.0005 30.9189 89.0005Z" fill="#FF4040"/>
<path id="Vector_46" d="M31.44 95.3607C31.36 95.3607 31.28 95.2807 31.28 95.2007L31 91.9607C31 91.8807 31.08 91.8007 31.16 91.7607C31.24 91.7607 31.32 91.8407 31.36 91.9207L31.64 95.1607C31.6 95.2807 31.56 95.3607 31.44 95.3607Z" fill="#FF4040"/>
<g id="Group_12">
<path id="Vector_47" d="M121.439 125.761H38.8386C36.7186 125.761 34.8786 124.041 34.6786 121.921L30.0386 66.0006C29.8786 63.8806 31.4386 62.1606 33.5586 62.1606H116.159C118.279 62.1606 120.119 63.8806 120.319 66.0006L124.959 121.921C125.119 124.041 123.519 125.761 121.439 125.761Z" fill="white"/>
<path id="Vector_48" d="M121.439 125.921H38.8392C36.6392 125.921 34.7192 124.121 34.5192 121.961L29.8792 66.0405C29.7992 64.9605 30.1192 63.9605 30.8392 63.2005C31.5192 62.4405 32.5192 62.0405 33.5592 62.0405H116.159C118.359 62.0405 120.279 63.8405 120.479 66.0005L125.119 121.921C125.199 123.001 124.879 124.001 124.159 124.761C123.439 125.481 122.479 125.921 121.439 125.921ZM33.5592 62.3205C32.5992 62.3205 31.7192 62.6805 31.0792 63.4005C30.4392 64.0805 30.1192 65.0005 30.1992 66.0005L34.8392 121.921C34.9992 123.961 36.7992 125.601 38.8392 125.601H121.439C122.399 125.601 123.279 125.241 123.919 124.521C124.559 123.841 124.879 122.921 124.799 121.921L120.159 66.0005C119.999 63.9605 118.199 62.3205 116.159 62.3205H33.5592Z" fill="#FF4040"/>
</g>
<path id="Vector_49" d="M116.119 62.1606H33.5586C31.4386 62.1606 29.8786 63.8806 30.0386 66.0006H120.279C120.119 63.9206 118.239 62.1606 116.119 62.1606Z" fill="#FF4040"/>
<g id="Group_13">
<path id="Vector_50" d="M35.479 64.0807C35.519 64.5207 35.159 64.9207 34.719 64.9207C34.279 64.9207 33.879 64.5607 33.839 64.0807C33.799 63.6407 34.159 63.2407 34.599 63.2407C35.039 63.2807 35.439 63.6407 35.479 64.0807Z" fill="white"/>
<path id="Vector_51" d="M38.8384 64.0807C38.8784 64.5207 38.5184 64.9207 38.0784 64.9207C37.6384 64.9207 37.2384 64.5607 37.1984 64.0807C37.1584 63.6407 37.5184 63.2407 37.9584 63.2407C38.3984 63.2407 38.7984 63.6407 38.8384 64.0807Z" fill="white"/>
<path id="Vector_52" d="M42.1977 64.0807C42.2377 64.5207 41.8777 64.9207 41.4377 64.9207C40.9977 64.9207 40.5977 64.5607 40.5577 64.0807C40.5177 63.6407 40.8777 63.2407 41.3177 63.2407C41.7577 63.2407 42.1577 63.6407 42.1977 64.0807Z" fill="white"/>
</g>
</g>
<path id="Vector_53" d="M114.238 118.44H44.7985C43.1185 118.44 41.6385 117.08 41.5185 115.4L38.2385 76.4004C38.1185 74.7204 39.3585 73.3604 41.0385 73.3604H110.518C112.198 73.3604 113.678 74.7204 113.798 76.4004L117.038 115.4C117.198 117.04 115.918 118.44 114.238 118.44Z" fill="#F0F0F0"/>
<path id="Vector_54" opacity="0.1" d="M92.7607 80.1606L71.2407 106.081C68.2807 109.641 70.1607 115.041 74.6807 116.041L109.601 123.601C114.441 124.641 118.441 119.881 116.601 115.281L103.201 81.8006C101.481 77.4806 95.7607 76.5606 92.7607 80.1606Z" fill="#263238"/>
<path id="Vector_55" opacity="0.1" d="M44.8774 83.8003L37.3574 104C36.3574 106.68 38.5174 109.52 41.3974 109.24L63.2774 107.08C66.3574 106.76 67.8774 103.2 65.9574 100.8L51.5574 82.7603C49.6774 80.3603 45.9174 80.9603 44.8774 83.8003Z" fill="#263238"/>
<g id="Group_14">
<path id="Vector_56" d="M100.2 73.6405L80.0804 102.841C77.3204 106.801 79.7604 112.28 84.5604 112.92L121.56 117.841C126.68 118.521 130.52 113.201 128.2 108.561L111.32 74.4405C109.12 70.0005 103 69.5605 100.2 73.6405Z" fill="#FF4040"/>
<path id="Vector_57" d="M85.4402 110.32C84.0802 110.16 82.9202 109.28 82.3202 108.04C81.7202 106.8 81.7602 105.44 82.5202 104.36L102.68 75.0803C103.4 74.0003 104.64 73.4803 106 73.6803C107.36 73.8403 108.52 74.7203 109.12 75.9603L126.04 110.2C126.64 111.44 126.6 112.8 125.84 113.88C125.12 114.96 123.88 115.48 122.52 115.28L85.4402 110.32Z" fill="white"/>
<g id="Group_15">
<path id="Vector_58" d="M104.239 84.0407L106.599 84.3607C108.119 84.5607 109.279 85.9207 109.199 87.4407L109.039 90.5207C109.039 90.6407 109.039 90.7607 108.999 90.8407L107.319 100.121C107.079 101.441 105.839 102.321 104.479 102.121C103.079 101.921 101.959 100.761 101.879 99.3607L101.199 89.8007C101.199 89.6807 101.199 89.5607 101.199 89.4807L101.359 86.4007C101.439 84.8807 102.759 83.8407 104.239 84.0407ZM104.079 104.641L104.719 104.721C106.079 104.921 107.119 106.121 107.039 107.481C106.959 108.841 105.799 109.761 104.479 109.561L103.839 109.481C102.479 109.281 101.439 108.081 101.519 106.721C101.559 105.401 102.719 104.481 104.079 104.641Z" fill="#FF4040"/>
</g>
</g>
<g id="Group_16">
<path id="Vector_59" d="M52.5983 78.1203L47.0783 99.0803C46.3583 101.84 48.7583 104.44 51.5983 103.88L73.0383 99.6803C76.0383 99.0803 77.2383 95.4003 75.1183 93.2003L59.1983 76.4003C57.0783 74.2003 53.3583 75.1603 52.5983 78.1203Z" fill="#FF4040"/>
<path id="Vector_60" d="M51.5601 102.16C50.8001 102.32 49.9601 102.04 49.4001 101.44C48.8401 100.84 48.6001 100 48.8001 99.2402L54.3201 78.2402C54.5201 77.4802 55.1201 76.9202 55.8801 76.8002C56.6401 76.6402 57.4801 76.9202 58.0401 77.5202L74.0001 94.3202C74.5601 94.9202 74.8001 95.7602 74.6001 96.5202C74.4001 97.2802 73.8001 97.8402 73.0401 97.9602L51.5601 102.16Z" fill="white"/>
<g id="Group_17">
<path id="Vector_61" d="M56.9177 83.1602L58.2777 82.8802C59.1577 82.7202 60.0777 83.2802 60.3177 84.2002L60.8377 86.0402C60.8377 86.1202 60.8777 86.1602 60.8777 86.2402L61.7177 92.0002C61.8377 92.8402 61.3177 93.5602 60.5177 93.7202C59.7177 93.8802 58.8777 93.4002 58.5577 92.6002L56.3577 87.1202C56.3177 87.0402 56.3177 87.0002 56.2777 86.9202L55.7577 85.0802C55.5177 84.2002 56.0377 83.3602 56.9177 83.1602ZM60.7577 95.2802L61.1177 95.2002C61.9177 95.0402 62.7177 95.5602 62.9177 96.3602C63.1177 97.1602 62.6777 97.9202 61.8777 98.0802L61.5177 98.1602C60.7177 98.3202 59.9177 97.8002 59.7177 97.0002C59.5177 96.2002 59.9977 95.4402 60.7577 95.2802Z" fill="#FF4040"/>
</g>
</g>
</g>
</g>
<g id="Character_1_">
<g id="Group_18">
<g id="Group_19">
<path id="Vector_62" d="M155.362 82.8003L152.242 83.8003L154.722 86.7603C154.722 86.7603 155.882 85.7603 156.522 84.6403C156.802 84.1603 156.642 83.5603 156.162 83.3203L155.362 82.8003Z" fill="#7F3E3B"/>
<path id="Vector_63" d="M150.801 86.2403L152.681 88.5203L154.721 86.7603L152.241 83.8403L150.801 86.2403Z" fill="#7F3E3B"/>
</g>
<path id="Vector_64" d="M156.36 58.6802C157.12 60.7602 157.8 62.8402 158.48 64.9602C159.12 67.0802 159.76 69.2002 160.28 71.4002L160.48 72.2402L160.56 72.6802L160.6 72.9202V72.9602V73.0402L160.64 73.2002C160.76 74.1202 160.64 74.8002 160.52 75.4802C160.24 76.8002 159.84 77.8802 159.36 78.9602C158.4 81.0802 157.28 83.0002 155.92 84.8802L153.84 83.7202C154.56 81.7202 155.32 79.6802 155.84 77.6802C156.12 76.6802 156.32 75.7202 156.4 74.8402C156.44 74.4002 156.4 74.0402 156.36 73.8402L156.2 73.2002L155.96 72.4802C155.32 70.4802 154.6 68.4002 153.92 66.3602C153.2 64.3202 152.52 62.2402 151.84 60.2002L156.36 58.6802Z" fill="#7F3E3B"/>
<path id="Vector_65" d="M139.079 46.2802C139.119 46.5202 139.039 46.7602 138.879 46.8002C138.719 46.8402 138.559 46.6802 138.479 46.4402C138.439 46.2002 138.519 45.9602 138.679 45.9202C138.839 45.8802 138.999 46.0402 139.079 46.2802Z" fill="#263238"/>
<path id="Vector_66" d="M139.04 46.7603C139.04 46.7603 138.8 48.3603 138.32 49.2003C138.84 49.5203 139.56 49.1203 139.56 49.1203L139.04 46.7603Z" fill="#630F0F"/>
<path id="Vector_67" d="M138.4 44.8003C138.36 44.8003 138.32 44.7603 138.28 44.7203C138.24 44.6403 138.24 44.5603 138.32 44.5203C138.36 44.5203 138.92 44.1203 139.68 44.4003C139.76 44.4403 139.8 44.5203 139.76 44.6003C139.72 44.6803 139.64 44.7203 139.56 44.6803C138.96 44.4403 138.48 44.7603 138.48 44.7603C138.48 44.7603 138.44 44.8003 138.4 44.8003Z" fill="#263238"/>
<path id="Vector_68" d="M147.642 47.0806C147.922 50.0006 147.522 52.8006 148.162 55.3206C148.162 55.3206 147.442 57.6806 143.162 57.6806C138.442 57.6806 141.002 55.3206 141.002 55.3206C143.602 54.7206 143.602 52.8006 143.242 51.0006L147.642 47.0806Z" fill="#7F3E3B"/>
<path id="Vector_69" d="M149.082 56.1204C149.442 55.3604 149.682 54.3204 148.922 54.0804C148.082 53.8004 143.602 53.6804 142.002 54.2404C140.362 54.8004 140.762 56.2804 140.762 56.2804L149.082 56.1204Z" fill="#263238"/>
<path id="Vector_70" d="M158.721 161.48C159.041 161.4 159.361 161.28 159.561 161.16C159.601 161.16 159.601 161.12 159.601 161.08C159.601 161.04 159.561 161 159.561 161C159.401 160.96 158.161 160.56 157.841 160.84C157.801 160.88 157.721 160.96 157.761 161.08C157.801 161.28 157.881 161.4 158.041 161.48C158.201 161.56 158.481 161.52 158.721 161.48ZM159.321 161.08C158.761 161.32 158.321 161.4 158.121 161.32C158.041 161.28 157.961 161.2 157.961 161.04C157.961 160.96 157.961 160.96 158.001 160.92C158.121 160.8 158.801 160.96 159.321 161.08Z" fill="#FF4040"/>
<path id="Vector_71" d="M159.558 161.16C159.558 161.16 159.598 161.16 159.598 161.12C159.638 161.08 159.638 161.08 159.598 161.04C159.598 161 159.278 160.04 158.798 159.84C158.678 159.8 158.558 159.76 158.438 159.8C158.238 159.88 158.238 160 158.238 160.08C158.238 160.48 159.118 161.04 159.478 161.16C159.518 161.16 159.518 161.16 159.558 161.16ZM158.558 159.96C158.638 159.96 158.678 159.96 158.758 160C159.038 160.16 159.278 160.68 159.398 160.96C158.998 160.76 158.438 160.32 158.438 160.08C158.398 160.04 158.398 160 158.558 159.96Z" fill="#FF4040"/>
<path id="Vector_72" d="M136.878 163.921C137.198 163.921 137.558 163.841 137.798 163.801C137.838 163.801 137.838 163.761 137.878 163.721C137.878 163.681 137.878 163.641 137.838 163.641C137.718 163.561 136.598 162.881 136.238 163.081C136.198 163.121 136.118 163.161 136.078 163.321C136.078 163.521 136.118 163.641 136.238 163.761C136.358 163.881 136.598 163.921 136.878 163.921ZM137.518 163.681C136.918 163.801 136.478 163.761 136.278 163.601C136.198 163.521 136.158 163.441 136.158 163.321C136.158 163.241 136.198 163.241 136.198 163.241C136.438 163.121 137.078 163.401 137.518 163.681Z" fill="#FF4040"/>
<path id="Vector_73" d="M137.76 163.8H137.8C137.84 163.8 137.84 163.76 137.84 163.72C137.84 163.68 137.76 162.68 137.36 162.36C137.24 162.28 137.12 162.24 137 162.24C136.8 162.28 136.76 162.4 136.76 162.44C136.68 162.84 137.36 163.6 137.76 163.8ZM137.04 162.4C137.12 162.4 137.16 162.44 137.24 162.48C137.48 162.68 137.6 163.28 137.64 163.56C137.28 163.28 136.84 162.72 136.88 162.48C136.92 162.48 136.92 162.4 137.04 162.4Z" fill="#FF4040"/>
<path id="Vector_74" d="M141.481 163.68H138.321L138.281 156.36H141.441L141.481 163.68Z" fill="#7F3E3B"/>
<path id="Vector_75" d="M163.478 160.96L160.438 161.52L158.238 154.32L161.278 153.76L163.478 160.96Z" fill="#7F3E3B"/>
<path id="Vector_76" d="M159.841 160.721L163.281 159.921C163.401 159.881 163.521 159.961 163.601 160.081L164.761 162.681C164.881 162.961 164.721 163.281 164.401 163.321C163.201 163.601 162.601 163.641 161.081 164.001C160.161 164.241 158.241 164.761 156.961 165.081C155.681 165.361 155.241 164.121 155.761 163.881C158.041 162.801 158.761 161.881 159.401 161.001C159.481 160.881 159.681 160.761 159.841 160.721Z" fill="#263238"/>
<path id="Vector_77" d="M138.359 163.32H141.799C141.919 163.32 142.039 163.4 142.079 163.52L142.599 166.32C142.639 166.6 142.439 166.88 142.119 166.88C140.879 166.84 139.079 166.8 137.519 166.8C135.679 166.8 135.039 166.88 132.879 166.88C131.599 166.88 131.279 165.56 131.839 165.44C134.319 164.88 135.399 164.84 137.599 163.52C137.799 163.4 138.079 163.32 138.359 163.32Z" fill="#263238"/>
<g id="Group_20">
<path id="Vector_78" d="M155.199 56.1604C158.159 58.2404 159.039 63.5604 159.039 63.5604L152.359 66.9604C152.359 66.9604 150.679 63.6804 149.919 60.3204C149.199 57.1604 153.119 54.6804 155.199 56.1604Z" fill="#FF4040"/>
<path id="Vector_79" opacity="0.2" d="M151.841 59.5605L154.481 65.8805L152.361 66.9605C152.361 66.9605 151.441 65.1606 150.641 62.8406L151.841 59.5605Z" fill="black"/>
</g>
<path id="Vector_80" d="M135.559 70.0003C135.599 73.5203 135.799 77.9203 136.319 83.3603H153.199C153.399 80.8803 152.359 69.2003 154.879 57.4803C155.079 56.6003 154.479 55.7603 153.599 55.6403C152.519 55.4803 151.039 55.2803 149.599 55.2003C147.439 55.0803 144.319 55.0403 142.439 55.2003C141.399 55.2803 140.399 55.4403 139.559 55.6403C138.119 55.9203 136.959 57.0003 136.599 58.4003C136.239 59.7603 135.879 61.8403 135.679 65.0003C135.599 66.4403 135.559 68.0803 135.559 70.0003Z" fill="#FF4040"/>
<path id="Vector_81" opacity="0.2" d="M140.88 63.4005C139.76 64.2005 137.64 64.6005 135.68 64.7605C135.72 64.2405 135.76 63.7605 135.8 63.2805C136.32 63.0005 136.84 62.7605 137.32 62.5205L140.88 63.4005Z" fill="black"/>
<g id="Group_21" opacity="0.2">
<path id="Vector_82" d="M138.281 156.36V160.44H141.441V156.36H138.281Z" fill="black"/>
<path id="Vector_83" d="M161.282 153.76L158.242 154.32L159.362 158.04L162.402 157.48L161.282 153.76Z" fill="black"/>
</g>
<path id="Vector_84" d="M147.2 43.6803C147.68 46.8003 148.08 48.5603 146.88 50.5203C145.08 53.4803 141.04 53.0003 139.68 50.1203C138.44 47.5203 137.88 42.8803 140.6 40.9203C143.28 39.0003 146.72 40.5603 147.2 43.6803Z" fill="#7F3E3B"/>
<path id="Vector_85" d="M140.719 45.9603C139.559 45.4403 139.679 43.6003 139.999 42.8403C138.639 43.3203 136.679 43.5603 136.319 42.2003C135.959 40.8403 137.159 40.3603 136.439 39.2003C135.719 38.0403 138.039 36.7203 139.119 38.3603C140.199 40.0003 142.879 39.2803 144.639 37.6803C145.919 36.5203 147.759 38.0003 146.999 39.5203C146.999 39.5203 150.799 39.2803 150.039 41.8403C149.279 44.4003 148.199 44.5203 148.479 46.3603C148.639 47.6003 148.799 50.1203 147.319 50.4803C145.559 50.9203 141.039 49.3203 140.719 45.9603Z" fill="#263238"/>
<path id="Vector_86" opacity="0.2" d="M140.721 49.3206C140.361 49.5606 140.001 49.8406 139.641 50.1206V50.1606C140.001 50.9606 140.601 51.5606 141.281 51.9606C141.521 51.7606 141.641 51.0006 142.041 51.0006C143.321 51.0406 145.761 50.5206 146.161 49.0806L140.721 49.3206Z" fill="black"/>
<path id="Vector_87" d="M141.68 45.9206C141.76 46.7206 141.64 47.4806 141.36 47.9606C141 48.6806 140.44 48.2406 140.2 47.3206C140 46.5206 139.96 45.1606 140.48 44.7606C141.04 44.3606 141.6 45.0006 141.68 45.9206Z" fill="#7F3E3B"/>
<g id="Group_22">
<path id="Vector_88" d="M142.32 83.3603C142.32 83.3603 144.96 107.48 146.6 116.52C148.36 126.4 157.56 157.48 157.56 157.48L163.2 156.28C163.2 156.28 156.88 127.2 156.04 117.4C155.12 106.76 153.24 83.3203 153.24 83.3203H142.32V83.3603Z" fill="#FF4040"/>
<path id="Vector_89" opacity="0.3" d="M142.32 83.3603C142.32 83.3603 144.96 107.48 146.6 116.52C148.36 126.4 157.56 157.48 157.56 157.48L163.2 156.28C163.2 156.28 156.88 127.2 156.04 117.4C155.16 107.28 155.16 107.32 153.24 83.3203H142.32V83.3603Z" fill="black"/>
</g>
<path id="Vector_90" d="M156.239 155.6C156.199 155.6 157.199 157.68 157.199 157.68L163.559 156.32L163.119 154.4L156.239 155.6Z" fill="#263238"/>
<path id="Vector_91" opacity="0.2" d="M144.24 91.9604C148.36 92.7604 147.32 108.24 146.52 116.16C145.56 110.56 144.2 99.7204 143.32 92.0804C143.6 91.9204 143.88 91.8804 144.24 91.9604Z" fill="black"/>
<g id="Group_23">
<path id="Vector_92" d="M136.321 83.3604C136.321 83.3604 134.961 106.96 134.961 116.6C134.921 126.6 137.161 159.4 137.161 159.4H142.521C142.521 159.4 143.961 127.2 144.561 117.36C145.241 106.64 147.441 83.3604 147.441 83.3604H136.321Z" fill="#FF4040"/>
<path id="Vector_93" opacity="0.3" d="M136.321 83.3604C136.321 83.3604 134.961 106.96 134.961 116.6C134.921 126.6 137.161 159.4 137.161 159.4H142.521C142.521 159.4 143.961 127.2 144.561 117.36C145.241 106.64 147.441 83.3604 147.441 83.3604H136.321Z" fill="black"/>
</g>
<path id="Vector_94" d="M136.2 157.28C136.16 157.28 136.4 159.52 136.4 159.52H142.92L143.16 157.52L136.2 157.28Z" fill="#263238"/>
<g id="Group_24">
<path id="Vector_95" d="M143.001 61.0804C142.361 61.1604 141.801 61.1604 141.241 61.2004C140.681 61.2004 140.081 61.2404 139.521 61.2404C138.361 61.2404 137.201 61.1604 136.041 61.0404C134.881 60.9204 133.721 60.7204 132.561 60.4404C131.401 60.1604 130.201 59.7604 129.041 59.2004L128.921 59.1204C127.881 58.6004 127.441 57.3604 127.961 56.3204C128.001 56.2004 128.081 56.0804 128.161 56.0004C128.721 55.2804 129.241 54.7604 129.761 54.2804C130.281 53.8004 130.841 53.3604 131.401 52.9604C132.481 52.1204 133.601 51.4004 134.721 50.7204C135.841 50.0404 136.961 49.3604 138.121 48.7204C139.281 48.1204 140.441 47.4804 141.641 46.9204C142.241 46.6404 142.961 46.9204 143.241 47.4804C143.481 48.0004 143.321 48.6004 142.881 48.9204C141.881 49.6804 140.841 50.4404 139.841 51.2404C138.841 52.0004 137.841 52.8004 136.841 53.6004C135.841 54.4004 134.881 55.2004 134.001 56.0004C133.561 56.4004 133.121 56.8404 132.721 57.2404C132.321 57.6404 131.961 58.0804 131.761 58.4004L130.881 55.2004C131.681 55.5204 132.601 55.7604 133.561 55.9204C134.521 56.0804 135.521 56.2004 136.521 56.2804C137.521 56.3604 138.561 56.3604 139.601 56.3604C140.121 56.3604 140.641 56.3604 141.161 56.3604C141.681 56.3604 142.201 56.3204 142.641 56.2804H142.681C144.001 56.2004 145.121 57.2004 145.201 58.5204C145.241 59.8804 144.281 60.9604 143.001 61.0804Z" fill="#7F3E3B"/>
</g>
<path id="Vector_96" d="M145.241 46.2806L143.241 46.7206C143.241 46.7206 140.561 46.4006 139.961 48.4006L141.561 49.7606L144.001 50.1606C144.401 50.2406 144.801 50.1606 145.121 49.9606L145.761 49.6406C146.041 49.4806 146.241 49.2006 146.281 48.8806L146.441 47.2806C146.441 46.6806 145.881 46.1606 145.241 46.2806Z" fill="#7F3E3B"/>
<path id="Vector_97" d="M141.36 63.4403C138 64.3603 134.16 63.2003 134.16 63.2003L135.56 55.6803C135.56 55.6803 138.92 55.4003 141 55.3603C146.36 55.2003 147.4 61.7603 141.36 63.4403Z" fill="#FF4040"/>
</g>
</g>
</g>
</svg>
