<svg width="241" height="240" viewBox="0 0 241 240" fill="none" xmlns="http://www.w3.org/2000/svg">
<g id="Frame 212">
<rect x="0.5" width="240" height="240" rx="120" fill="#73D339"/>
<g id="OBJECTS">
<g id="Group">
<g id="Group_2">
<g id="Group_3">
<g id="Group_4" opacity="0.5">
<path id="Vector" d="M211.618 157.619C207.364 145.091 195.965 134.811 182.793 133.561C170.358 132.377 158.353 138.841 145.862 138.963C125.666 139.149 108.903 123.123 89.1176 119.065C66.1232 114.345 40.75 128.636 32.8489 150.744C27.7556 165.017 30.3583 181.388 38.4459 194.131H207.98C213.754 182.936 215.657 169.522 211.618 157.619Z" fill="#E2EDFF"/>
</g>
<g id="Group_5">
<path id="Vector_2" d="M53.2792 159.615C69.6691 157.059 84.2213 145.361 90.49 130.053C91.8053 126.835 92.7381 123.505 93.3538 120.119C93.2325 120.081 93.1019 120.044 92.9806 120.016C92.5609 122.292 92.0198 124.55 91.2922 126.77C88.7362 134.634 84.0068 141.695 77.8967 147.246C71.8239 152.759 64.3892 156.788 56.3855 158.645C48.1019 160.566 39.3426 160.025 31.2642 157.423C31.1896 157.404 31.1243 157.376 31.0497 157.348C31.0217 157.469 31.003 157.591 30.9844 157.712C38.1486 160.044 45.8165 160.781 53.2792 159.615Z" fill="white"/>
<path id="Vector_3" d="M79.9027 170.679C92.1322 172.311 104.697 173.188 116.787 170.091C122.272 168.682 127.571 166.453 132.207 163.197C136.871 159.923 140.724 155.641 143.783 150.856C146.227 147.031 148.14 142.955 149.669 138.738C149.539 138.748 149.399 138.766 149.268 138.776C148.224 141.63 147.002 144.419 145.546 147.124C142.729 152.358 139.072 157.19 134.483 160.996C129.959 164.755 124.604 167.395 118.989 169.093C107.132 172.684 94.5669 172.143 82.412 170.632C69.1191 168.971 55.8169 166.173 42.3561 166.77C38.3355 166.947 34.259 167.432 30.2852 168.3C30.2945 168.43 30.2945 168.561 30.3038 168.692C33.5501 167.973 36.8523 167.516 40.1452 167.274C53.4941 166.304 66.7404 168.925 79.9027 170.679Z" fill="white"/>
<path id="Vector_4" d="M199.612 179.466C194.91 178.43 190.274 176.994 185.983 174.792C181.991 172.731 178.222 169.998 175.554 166.331C172.811 162.563 171.505 158.001 171.907 153.356C172.662 144.82 178.222 137.992 185.414 133.934C185.227 133.897 185.05 133.869 184.864 133.841C178.828 137.33 174.015 142.675 172.177 149.699C171.002 154.177 171.272 158.934 173.241 163.151C175.125 167.199 178.371 170.436 182.037 172.899C185.908 175.501 190.283 177.33 194.761 178.617C200.125 180.165 205.666 181.117 211.235 181.471C211.683 181.499 212.13 181.518 212.578 181.537C212.606 181.415 212.634 181.294 212.662 181.164C208.269 180.968 203.903 180.408 199.612 179.466Z" fill="white"/>
<path id="Vector_5" d="M101.795 129.643C102.644 127.852 103.595 126.108 104.631 124.429C104.519 124.373 104.398 124.326 104.286 124.27C103.539 125.483 102.84 126.714 102.196 127.983C100.582 131.136 99.2857 134.457 98.3342 137.871C97.2987 141.602 96.4219 145.697 97.3827 149.541C98.1196 152.507 100.06 155.277 103.017 156.341C106.357 157.544 109.985 156.294 112.942 154.662C116.161 152.88 119.118 150.492 121.907 148.104C124.715 145.697 127.364 143.113 129.836 140.361C130.834 139.251 131.795 138.113 132.728 136.957C132.597 136.919 132.467 136.882 132.336 136.835C127.821 142.414 122.607 147.423 116.804 151.677C113.829 153.86 110.48 156.061 106.72 156.406C102.98 156.751 99.8454 154.597 98.3622 151.229C96.7204 147.488 97.392 143.235 98.3342 139.41C99.1458 136.052 100.321 132.768 101.795 129.643Z" fill="white"/>
<path id="Vector_6" d="M202.32 169.718C206.191 169.923 210.071 168.962 213.616 167.274C213.607 167.162 213.598 167.05 213.588 166.938C210.65 168.328 207.478 169.186 204.167 169.344C200.454 169.522 196.667 168.552 193.905 165.977C191.415 163.654 190.165 160.268 191.116 156.928C191.536 155.445 192.376 154.055 193.579 153.076C195.146 151.807 197.17 151.481 199.129 151.425C200.892 151.369 202.665 151.499 204.418 151.275C205.696 151.108 206.946 150.762 208.141 150.249C208.075 150.147 208.01 150.035 207.945 149.932C207.553 150.1 207.161 150.249 206.76 150.371C203.141 151.527 199.269 150.408 195.678 151.555C192.87 152.451 191.004 154.96 190.538 157.815C190.043 160.809 191.163 163.719 193.252 165.865C195.641 168.309 198.943 169.54 202.32 169.718Z" fill="white"/>
<path id="Vector_7" d="M166.702 182.05C165.023 178.057 163.344 174.055 161.674 170.063C160.498 167.264 159.267 164.223 156.73 162.367C154.053 160.417 150.424 160.417 147.429 161.611C144.258 162.88 141.739 165.343 139.584 167.927C135.303 173.076 132.224 179.195 130.517 185.66C129.789 188.43 129.304 191.266 129.09 194.121H129.472C130.116 185.762 132.998 177.572 137.886 170.725C139.883 167.927 142.215 165.137 145.116 163.234C148.101 161.275 152.084 160.333 155.424 161.994C158.474 163.514 159.92 166.835 161.17 169.802C162.728 173.514 164.286 177.218 165.844 180.93C167.691 185.324 169.538 189.718 171.375 194.111H171.776C170.088 190.1 168.4 186.07 166.702 182.05Z" fill="white"/>
</g>
</g>
<g id="Group_6" opacity="0.5">
<path id="Vector_8" d="M150.834 112.181C148.418 112.256 145.983 112.153 143.176 111.136C137.187 108.963 129.724 112.526 129.668 119.439C129.631 124.802 134.566 128.356 139.136 129.989C147.756 133.077 165.61 131.454 164.771 118.646C164.5 114.551 162.327 112.638 158.4 112.19C155.629 111.873 153.232 112.116 150.834 112.181Z" fill="#E2EDFF"/>
</g>
</g>
<g id="Group_7">
<g id="Group_8">
<g id="Group_9">
<path id="Vector_9" d="M183.085 76.8547C180.734 76.0431 179.13 74.6345 177.32 72.5636L178.085 70.9312C179.988 73.4498 180.604 74.8117 182.983 74.6159L183.085 76.8547Z" fill="#FFB900"/>
</g>
</g>
<g id="Group_10">
<g id="Group_11">
<path id="Vector_10" d="M210.058 113.002C208.314 110.726 207.53 108.394 206.887 105.335L208.379 104.346C208.892 107.881 208.799 109.532 211.056 110.894L210.058 113.002Z" fill="#007BFF"/>
</g>
</g>
<g id="Group_12">
<g id="Group_13">
<path id="Vector_11" d="M151.515 82.9931C149.043 83.6087 146.981 83.2543 144.462 82.424L144.453 80.5117C147.252 81.6964 148.399 82.5733 150.461 81.0248L151.515 82.9931Z" fill="#14CCA1"/>
</g>
</g>
<g id="Group_14">
<g id="Group_15">
<path id="Vector_12" d="M87.9156 75.1955C86.7495 76.8559 85.4342 77.7515 83.6618 78.6097L82.9062 77.5183C84.9678 76.7067 85.966 76.6041 86.535 74.6265L87.9156 75.1955Z" fill="#FF5C33"/>
</g>
</g>
<g id="Group_16">
<g id="Group_17">
<path id="Vector_13" d="M47.2221 123.593C44.4422 123.733 42.362 122.968 39.918 121.615L40.4217 119.656C43.0616 121.419 44.0411 122.548 46.6344 121.373L47.2221 123.593Z" fill="#007BFF"/>
</g>
</g>
<g id="Group_18">
<g id="Group_19">
<path id="Vector_14" d="M52.2871 75.9608C50.1696 74.4216 49.0595 72.5279 47.9961 69.9346L49.442 68.582C50.4215 71.6417 50.5241 73.1716 53.0707 73.7406L52.2871 75.9608Z" fill="#14CCA1"/>
</g>
</g>
<g id="Group_20">
<g id="Group_21">
<path id="Vector_15" d="M64.9763 92.9566C62.5696 94.6357 60.3122 95.1208 57.4017 95.3074L56.8047 93.3018C60.1069 93.3764 61.5808 93.8148 63.2599 91.3335L64.9763 92.9566Z" fill="#007BFF"/>
</g>
</g>
<g id="Group_22">
<g id="Group_23">
<path id="Vector_16" d="M99.377 46.7071C96.9703 48.125 94.7595 48.4049 91.961 48.3489L91.5039 46.3713C94.6662 46.7071 96.0561 47.2481 97.8285 45L99.377 46.7071Z" fill="#FFB900"/>
</g>
</g>
<g id="Group_24">
<path id="Vector_17" d="M133.53 51.587C131.525 50.5982 130.219 49.1616 128.801 47.128L129.622 45.7754C131.086 48.2194 131.515 49.4974 133.633 49.6L133.53 51.587Z" fill="#14CCA1"/>
</g>
<g id="Group_25">
<g id="Group_26">
<path id="Vector_18" d="M164.791 59.4326C166.992 58.136 168.205 56.4475 169.427 54.0968L168.083 52.7349C166.917 55.5334 166.722 56.9513 164.156 57.3058L164.791 59.4326Z" fill="#FF5C33"/>
</g>
</g>
<g id="Group_27" opacity="0.837">
<g id="Group_28">
<path id="Vector_19" d="M92.4403 128.974C90.2202 127.659 88.8489 125.895 87.375 123.442L88.4011 121.978C89.8937 124.897 90.2948 126.399 92.7015 126.716L92.4403 128.974Z" fill="#FF5C33"/>
</g>
</g>
<g id="Group_29">
<g id="Group_30">
<path id="Vector_20" d="M165.722 109.114C164.836 111.856 163.483 113.675 161.524 115.7L160.125 114.674C162.485 112.575 163.735 111.931 163.726 109.086L165.722 109.114Z" fill="#FF5C33"/>
</g>
</g>
<path id="Vector_21" d="M74.7336 64.5898C75.2488 64.5898 75.6665 64.1721 75.6665 63.657C75.6665 63.1418 75.2488 62.7241 74.7336 62.7241C74.2184 62.7241 73.8008 63.1418 73.8008 63.657C73.8008 64.1721 74.2184 64.5898 74.7336 64.5898Z" fill="#FF5C33"/>
<path id="Vector_22" d="M148.866 64.5898C149.382 64.5898 149.799 64.1721 149.799 63.657C149.799 63.1418 149.382 62.7241 148.866 62.7241C148.351 62.7241 147.934 63.1418 147.934 63.657C147.934 64.1721 148.351 64.5898 148.866 64.5898Z" fill="#FFB900"/>
<path id="Vector_23" d="M173.241 93.0131C173.757 93.0131 174.174 92.5955 174.174 92.0803C174.174 91.5651 173.757 91.1475 173.241 91.1475C172.726 91.1475 172.309 91.5651 172.309 92.0803C172.309 92.5955 172.726 93.0131 173.241 93.0131Z" fill="#FF5C33"/>
<path id="Vector_24" d="M76.2258 102.463C76.741 102.463 77.1586 102.045 77.1586 101.53C77.1586 101.015 76.741 100.597 76.2258 100.597C75.7106 100.597 75.293 101.015 75.293 101.53C75.293 102.045 75.7106 102.463 76.2258 102.463Z" fill="#14CCA1"/>
<path id="Vector_25" d="M33.6987 91.4834L31.832 93.3501L33.6987 95.2168L35.5654 93.3501L33.6987 91.4834Z" fill="#FFB900"/>
<path id="Vector_26" d="M195.71 88.436L193.844 90.3027L195.71 92.1694L197.577 90.3027L195.71 88.436Z" fill="#14CCA1"/>
</g>
<g id="Group_31">
<path id="Vector_27" d="M131.402 156.763L115.684 156.782V153.116C115.684 151.819 116.728 150.765 118.025 150.765L129.051 150.756C130.348 150.756 131.402 151.801 131.402 153.097V156.763Z" fill="#FFB900"/>
<path id="Vector_28" d="M128.621 134.851H118.453V152.855H128.621V134.851Z" fill="#FFB900"/>
<path id="Vector_29" d="M118.453 142.631V134.851H128.621L128.612 138.629L118.453 142.631Z" fill="#E8950C"/>
<path id="Vector_30" d="M141.028 120.961L140.375 118.816C152.278 115.215 157.325 107.762 155.804 96.0451C155.785 96.0264 155.664 95.9518 155.506 95.9984L153.864 96.4462C153.211 96.6234 152.763 97.1178 152.763 97.6682V100.206C152.763 101.745 151.466 102.976 149.806 103.013C148.09 103.051 145.151 103.097 144.769 103.097V100.859C145.039 100.859 146.905 100.821 149.769 100.775C150.179 100.765 150.534 100.504 150.534 100.206V97.6682C150.534 96.0917 151.644 94.7298 153.285 94.282L154.927 93.8343C155.646 93.6384 156.41 93.7596 157.026 94.1701C157.586 94.5432 157.95 95.1216 158.034 95.7559C158.836 101.913 157.94 107.118 155.366 111.204C152.586 115.644 147.763 118.928 141.028 120.961Z" fill="#FFB900"/>
<path id="Vector_31" d="M106.039 120.961C99.3039 118.927 94.4812 115.644 91.7013 111.213C89.136 107.118 88.2405 101.922 89.0334 95.7652C89.1174 95.1309 89.4812 94.5525 90.0409 94.1794C90.6565 93.7689 91.4215 93.6476 92.1398 93.8435L93.7815 94.2913C95.4233 94.7391 96.5334 96.0917 96.5334 97.6775V100.215C96.5334 100.513 96.8879 100.775 97.2983 100.784C100.162 100.84 102.028 100.868 102.298 100.868V103.107C101.907 103.107 98.9681 103.051 97.261 103.023C95.6006 102.995 94.3039 101.763 94.3039 100.215V97.6775C94.3039 97.1271 93.8655 96.6327 93.2032 96.4555L91.5614 96.0077C91.4028 95.9611 91.2815 96.0357 91.2629 96.073C89.7517 107.771 94.7983 115.224 106.701 118.825L106.039 120.961Z" fill="#FFB900"/>
<path id="Vector_32" d="M145.928 96.2781L143.494 126.661C143.205 130.299 141.423 133.498 138.792 135.662C136.544 137.509 133.662 138.62 130.537 138.62H116.553C109.781 138.62 104.137 133.414 103.596 126.661L102.337 110.896L101.162 96.2781C100.975 93.9926 102.785 92.0337 105.08 92.0337H142.001C144.296 92.0337 146.106 93.9926 145.928 96.2781Z" fill="#FFB900"/>
<path id="Vector_33" d="M138.791 135.662C136.543 137.509 133.661 138.619 130.536 138.619H116.552C109.78 138.619 104.136 133.414 103.595 126.66L102.336 110.896C111.189 122.09 125.312 131.688 138.791 135.662Z" fill="#E8950C"/>
<path id="Vector_34" d="M131.122 138.433H116.551V138.806H131.122V138.433Z" fill="#001F40"/>
<path id="Vector_35" d="M120.733 150.579H118.027V150.952H120.733V150.579Z" fill="#001F40"/>
<path id="Vector_36" d="M129.127 150.579H126.422V150.952H129.127V150.579Z" fill="#001F40"/>
<path id="Vector_37" d="M135.058 165.653L112.017 165.681L112.008 159.599C112.008 157.332 113.845 155.485 116.112 155.485L130.926 155.466C133.193 155.466 135.04 157.304 135.04 159.571L135.058 165.653Z" fill="#FFB900"/>
<path id="Vector_38" d="M131.386 155.327H115.695V155.7H131.386V155.327Z" fill="#E8950C"/>
<path id="Vector_39" opacity="0.6" d="M135.517 109.151C136.651 109.151 137.569 107.355 137.569 105.14C137.569 102.925 136.651 101.129 135.517 101.129C134.384 101.129 133.465 102.925 133.465 105.14C133.465 107.355 134.384 109.151 135.517 109.151Z" fill="white"/>
</g>
<g id="Group_32">
<path id="Vector_40" d="M180.078 184.588H67.0742V194.197H180.078V184.588Z" fill="white"/>
<path id="Vector_41" d="M161.412 174.98H85.75V184.589H161.412V174.98Z" fill="white"/>
<path id="Vector_42" d="M148.323 165.372H98.8359V174.98H148.323V165.372Z" fill="white"/>
<path id="Vector_43" d="M151.41 184.588H95.7383V194.197H151.41V184.588Z" fill="#FF5C33"/>
<path id="Vector_44" d="M143.407 174.98H103.762V184.589H143.407V174.98Z" fill="#FF5C33"/>
<path id="Vector_45" d="M135.18 165.372H111.98V174.98H135.18V165.372Z" fill="#FF5C33"/>
<path id="Vector_46" opacity="0.1" d="M111.98 172.732H98.8359V174.971H111.98V172.732Z" fill="#003E80"/>
<path id="Vector_47" opacity="0.1" d="M148.323 172.732H135.18V174.971H148.323V172.732Z" fill="#003E80"/>
<path id="Vector_48" opacity="0.3" d="M135.18 172.732H111.98V174.971H135.18V172.732Z" fill="#4A191B"/>
<path id="Vector_49" opacity="0.1" d="M103.754 182.331H85.75V184.57H103.754V182.331Z" fill="#003E80"/>
<path id="Vector_50" opacity="0.1" d="M161.402 182.331H143.398V184.57H161.402V182.331Z" fill="#003E80"/>
<path id="Vector_51" opacity="0.3" d="M143.407 182.331H103.762V184.57H143.407V182.331Z" fill="#4A191B"/>
<path id="Vector_52" opacity="0.1" d="M95.7403 191.949H67.0742V194.188H95.7403V191.949Z" fill="#003E80"/>
<path id="Vector_53" opacity="0.1" d="M180.076 191.949H151.41V194.188H180.076V191.949Z" fill="#003E80"/>
<path id="Vector_54" opacity="0.3" d="M151.41 191.949H95.7383V194.188H151.41V191.949Z" fill="#4A191B"/>
<path id="Vector_55" d="M67.2599 194.187H66.8867V184.402L85.5621 184.383V174.794L98.6498 174.784V165.186H111.887V165.559H99.0229V175.158L85.9352 175.167V184.756L67.2599 184.775V194.187Z" fill="#95BEFF"/>
<path id="Vector_56" d="M180.264 194.187H179.891V184.775L161.225 184.756V175.167L148.137 175.158V165.559H135.059V165.186H148.51V174.784L161.598 174.794V184.383L180.264 184.402V194.187Z" fill="#95BEFF"/>
</g>
<g id="Group_33">
<g id="Group_34">
<g id="Group_35">
<path id="Vector_57" d="M121.214 100.39L119.824 104.998L125.253 106.705L123.434 103.674L123.966 101.015L121.214 100.39Z" fill="#001F40"/>
<path id="Vector_58" d="M123.347 103.51L122.25 104.049L122.415 104.384L123.511 103.844L123.347 103.51Z" fill="white"/>
</g>
<path id="Vector_59" d="M120.254 85.988L124.078 86.3518C124.862 86.4264 125.636 86.6876 126.252 87.1727C127.465 88.1149 127.94 89.5794 127.679 91.072C127.614 91.4544 127.53 91.8182 127.474 92.1167L124.349 103.208L119.61 100.68L121.728 92.4246L116.914 92.2753L114.293 86.7716L115.244 82.3779L120.254 85.988Z" fill="#007BFF"/>
</g>
<g id="Group_36">
<g id="Group_37">
<path id="Vector_60" d="M119.591 105.353L118.406 110.4L124.367 111.874L122.212 108.739L122.604 105.838L119.591 105.353Z" fill="#001F40"/>
<path id="Vector_61" d="M122.121 108.582L120.98 109.237L121.166 109.56L122.307 108.905L122.121 108.582Z" fill="white"/>
</g>
<path id="Vector_62" d="M114.498 92.3406L118.593 107.266L123.192 106.744L120.505 90.9227C120.244 89.5421 120.188 88.6932 118.08 87.6485L115.822 86.3984L115.244 82.3779L111.82 84.6074L111.27 89.8499C111.139 91.1186 112.081 92.238 113.331 92.294L114.498 92.3406Z" fill="#007BFF"/>
</g>
<path id="Vector_63" d="M120.449 85.9041L113.63 86.6784C112.865 86.7623 112.184 86.2213 112.091 85.4564L110.906 75.3631L116.587 73.9731L122.613 74.878L121.503 84.8407C121.447 85.4004 121.009 85.8388 120.449 85.9041Z" fill="white"/>
<g id="Group_38">
<path id="Vector_64" d="M106.27 63.3111C106.27 63.3111 106.802 60.7085 106.391 60.8018C105.981 60.8951 105.561 61.8932 105.561 61.8932C105.561 61.8932 104.656 59.729 104.311 59.7477C103.966 59.7663 104.069 60.3167 104.069 60.3167C104.069 60.3167 103.425 60.0089 103.257 60.6432C103.257 60.6432 102.613 60.3354 102.613 61.5201C102.613 61.9492 102.958 63.4417 103.397 65.1675L106.485 63.9921L106.27 63.3111Z" fill="#FFBA9A"/>
<path id="Vector_65" d="M108.65 69.9717L106.486 63.9922L103.398 65.1676C103.939 67.2944 104.62 69.7851 104.975 71.0631C105.134 71.6228 105.413 72.1452 105.805 72.5743L111.999 79.953L114.676 76.1564L108.65 69.9717Z" fill="#003E80"/>
<g id="Group_39">
<path id="Vector_66" d="M105.154 63.0774C104.846 62.7136 104.874 62.3685 105.229 62.042L105.294 62.1073C104.977 62.3965 104.958 62.695 105.229 63.0121L105.154 63.0774Z" fill="#974245"/>
<path id="Vector_67" d="M104.033 60.2897L103.945 60.3203L104.386 61.5894L104.474 61.5589L104.033 60.2897Z" fill="#974245"/>
<path id="Vector_68" d="M103.724 61.7809L103.332 60.6242L103.425 60.5962L103.808 61.7529L103.724 61.7809Z" fill="#974245"/>
<path id="Vector_69" d="M103.305 62.1169L102.82 60.7736L102.904 60.7456L103.399 62.0796L103.305 62.1169Z" fill="#974245"/>
</g>
</g>
<g id="Group_40">
<path id="Vector_70" d="M130.242 59.6349C130.177 58.4595 129.375 58.6927 129.375 58.6927C129.216 58.1797 128.713 58.5248 128.713 58.5248C128.713 58.5248 128.741 58.1797 128.395 58.1797C128.05 58.1797 127.332 60.1853 127.332 60.1853C127.332 60.1853 126.847 59.2151 126.427 59.1498C126.007 59.0845 126.707 61.6405 126.707 61.6405L126.511 62.4427L129.645 63.5435C129.991 61.7151 130.27 60.0827 130.242 59.6349Z" fill="#FFBA9A"/>
<path id="Vector_71" d="M126.51 62.4521L124.7 68.5716L119.477 75.5398L122.462 78.6462L127.76 70.8663C128.124 70.4092 128.376 69.8775 128.488 69.2992C128.749 68.0492 129.253 65.6611 129.644 63.5529L126.51 62.4521Z" fill="#003E80"/>
<g id="Group_41">
<path id="Vector_72" d="M127.844 61.3606L127.769 61.3046C128.003 60.9595 127.947 60.661 127.602 60.4091L127.658 60.3345C128.049 60.6237 128.115 60.9688 127.844 61.3606Z" fill="#974245"/>
<path id="Vector_73" d="M128.655 58.4796L128.352 59.7881L128.442 59.8092L128.746 58.5007L128.655 58.4796Z" fill="#974245"/>
<path id="Vector_74" d="M129.29 58.7109L129.027 59.9043L129.118 59.9243L129.381 58.7309L129.29 58.7109Z" fill="#974245"/>
<path id="Vector_75" d="M129.578 60.204L129.484 60.176L129.83 58.7954L129.913 58.8141L129.578 60.204Z" fill="#974245"/>
</g>
</g>
<g id="Group_42">
<path id="Vector_76" d="M116.513 75.6615C115.86 75.6615 115.328 75.1298 115.328 74.4768V72.3779H117.688V74.4768C117.688 75.1298 117.166 75.6615 116.513 75.6615Z" fill="#FFBA9A"/>
<path id="Vector_77" d="M117.663 72.6763C117.29 73.9916 115.779 74.0475 115.312 72.6763H117.663Z" fill="#001F40"/>
<path id="Vector_78" d="M116.514 73.199C117.477 73.199 118.258 72.2885 118.258 71.1654C118.258 70.0423 117.477 69.1318 116.514 69.1318C115.551 69.1318 114.77 70.0423 114.77 71.1654C114.77 72.2885 115.551 73.199 116.514 73.199Z" fill="#FFBA9A"/>
<path id="Vector_79" d="M114.908 71.2027C115.011 69.8034 115.934 69.4676 115.934 69.4676L117.137 69.4489C117.632 69.8221 118.052 70.5217 118.08 71.2493L118.49 71.2306C118.751 69.8594 118.518 68.5161 117.725 68.2082L118.117 68.0124C114.843 67.2847 114.031 68.6 114.423 70.8948L114.908 71.2027Z" fill="#001F40"/>
<g id="Group_43">
<path id="Vector_80" d="M115.134 71.0715C115.265 71.342 115.171 71.6592 114.938 71.7711C114.696 71.883 114.397 71.7524 114.266 71.4819C114.136 71.2114 114.229 70.8942 114.462 70.7823C114.705 70.6704 115.003 70.801 115.134 71.0715Z" fill="#FFBA9A"/>
<path id="Vector_81" d="M114.778 71.4167C114.722 71.2581 114.62 71.1555 114.461 71.0995L114.489 71.0249C114.675 71.0902 114.797 71.2115 114.862 71.398L114.778 71.4167Z" fill="#001F40"/>
</g>
<g id="Group_44">
<path id="Vector_82" d="M117.95 71.0715C117.819 71.342 117.913 71.6592 118.146 71.7711C118.388 71.883 118.687 71.7524 118.818 71.4819C118.948 71.2114 118.855 70.8942 118.622 70.7823C118.379 70.6704 118.081 70.801 117.95 71.0715Z" fill="#FFBA9A"/>
<path id="Vector_83" d="M118.293 71.4167L118.219 71.3888C118.284 71.2022 118.405 71.0809 118.592 71.0156L118.62 71.0903C118.452 71.1555 118.349 71.2582 118.293 71.4167Z" fill="#001F40"/>
</g>
</g>
<path id="Vector_84" d="M115.299 74.2905C116.512 78.3763 116.101 84.617 114.721 89.2905L109.805 90.0555L110.915 75.3633L115.299 74.2905Z" fill="#003E80"/>
<path id="Vector_85" d="M117.68 74.1504C118.053 78.8799 118.93 85.7269 120.674 89.0011L123.65 87.4806L122.624 74.878L117.68 74.1504Z" fill="#003E80"/>
<path id="Vector_86" d="M123.089 106.762C123.061 106.604 120.495 90.8762 120.085 89.5422C119.684 88.2456 117.09 87.1822 117.062 87.1728L117.137 86.9956C117.249 87.0422 119.842 88.0963 120.271 89.4769C120.691 90.8202 123.182 106.072 123.285 106.725L123.089 106.762Z" fill="#001F40"/>
<path id="Vector_87" d="M114.238 91.2168L114.059 91.2681L115.924 97.7977L116.103 97.7464L114.238 91.2168Z" fill="#001F40"/>
<path id="Vector_88" d="M123.078 92.6394L121.707 92.5088L121.726 92.3223L123.097 92.4529L123.078 92.6394Z" fill="#001F40"/>
</g>
<g id="Group_45">
<g id="Group_46">
<g id="Group_47">
<g id="Group_48">
<g id="Group_49">
<g id="Group_50">
<path id="Vector_89" d="M59.934 189.852L59.2344 194.264H65.1672L62.8444 191.941L63.0217 189.749L59.934 189.852Z" fill="#001F40"/>
<path id="Vector_90" d="M62.7483 191.789L61.5664 192.484L61.7556 192.805L62.9375 192.11L62.7483 191.789Z" fill="white"/>
</g>
<path id="Vector_91" d="M72.1827 157.79C72.0988 158.312 72.0148 158.835 71.9122 159.348C71.7536 160.318 71.5764 161.288 71.4085 162.24C70.7835 165.672 70.1025 168.993 69.3562 172.202C69.3562 172.202 69.3562 172.202 69.3562 172.212C67.8823 178.704 66.1846 184.768 64.3189 190.505H59.0391C61.1659 180.365 63.2182 170.337 63.8805 162.575C63.9831 161.437 64.0484 160.337 64.0764 159.301L72.1827 157.79Z" fill="#14CCA1"/>
</g>
<g id="Group_51">
<g id="Group_52">
<path id="Vector_92" d="M71.9667 189.647L71.7148 194.181L78.0395 194.265L75.5301 191.942L75.7167 189.75L71.9667 189.647Z" fill="#001F40"/>
<path id="Vector_93" d="M75.4539 191.777L74.1758 192.473L74.3542 192.8L75.6323 192.104L75.4539 191.777Z" fill="white"/>
</g>
<path id="Vector_94" d="M76.4088 190.392H70.8957C70.5039 184.123 70.0375 177.995 69.3658 172.211C69.3658 172.211 69.3658 172.211 69.3658 172.202C68.9741 168.806 68.5076 165.523 67.9479 162.398C67.7707 161.39 67.5748 160.401 67.3789 159.422L71.9218 159.347L74.1793 159.31C74.3285 160.234 74.4685 161.166 74.5991 162.099C75.877 171.222 76.2408 180.756 76.4088 190.392Z" fill="#14CCA1"/>
</g>
</g>
<path id="Vector_95" opacity="0.3" d="M74.5981 162.1L71.4078 162.249L67.9469 162.408L63.8984 162.594C64.001 161.456 64.0663 160.355 64.0943 159.32L72.182 157.799C72.0981 158.322 72.0141 158.844 71.9115 159.357L74.169 159.32C74.3275 160.234 74.4675 161.167 74.5981 162.1Z" fill="#4A191B"/>
<path id="Vector_96" d="M69.0108 174.6L68.8242 174.563L70.6992 165.262L70.8858 165.3L69.0108 174.6Z" fill="#001F40"/>
</g>
<g id="Group_53">
<path id="Vector_97" d="M70.7285 146.755C67.9393 147.054 65.6539 146.821 63.4337 145.487L61.2695 149.153L63.7882 151.401L63.2845 159.339C63.2565 159.806 63.5083 160.244 63.9281 160.459C64.0867 160.543 64.2639 160.58 64.4505 160.58H73.9841C74.5065 160.58 74.9636 160.254 75.1501 159.769C75.1968 159.647 75.2154 159.526 75.2248 159.405L75.6352 150.991L79.9076 149.983L78.9281 146.625C75.6445 146.998 72.7154 147.203 70.7285 146.755Z" fill="#007BFF"/>
<g id="Group_54">
<path id="Vector_98" d="M63.4236 145.488L61.2594 149.154L58.265 146.476C58.1997 146.42 58.1344 146.355 58.0691 146.29C57.4908 145.702 57.0803 144.965 56.9031 144.154C56.8751 144.051 56.8564 143.939 56.8284 143.827C56.1661 140.907 54.9255 135.226 54.9908 134.723C55.0747 134.051 55.765 134.34 55.765 134.34C55.821 133.697 56.3527 134.042 56.3527 134.042C56.3527 133.678 56.474 133.585 56.8378 133.603C57.2016 133.622 57.6867 135.823 57.6867 135.823C57.6867 135.823 58.2277 134.676 58.6195 134.769C59.0206 134.853 58.2743 137.064 58.2743 137.064L60.877 143.445C61.7538 144.312 62.584 144.975 63.4236 145.488Z" fill="#FFBA9A"/>
<path id="Vector_99" opacity="0.2" d="M58.4871 145.282C58.4871 145.674 58.3285 146.038 58.0766 146.299C57.4982 145.712 57.0878 144.975 56.9106 144.163C56.8826 144.06 56.8639 143.949 56.8359 143.837C56.9012 143.827 56.9572 143.827 57.0225 143.827C57.8341 143.818 58.4871 144.471 58.4871 145.282Z" fill="#FF5C33"/>
<g id="Group_55">
<path id="Vector_100" d="M57.2391 137.12C56.9127 136.775 56.922 136.43 57.2578 136.085L57.3231 136.15C57.0246 136.458 57.0153 136.757 57.3044 137.055L57.2391 137.12Z" fill="#974245"/>
<path id="Vector_101" d="M56.5201 134.984L56.3242 134.07L56.4175 134.042L56.6134 134.965L56.5201 134.984Z" fill="#974245"/>
<path id="Vector_102" d="M55.9622 135.124L55.7383 134.368L55.8316 134.34L56.0554 135.096L55.9622 135.124Z" fill="#974245"/>
<path id="Vector_103" d="M55.426 134.609L55.3359 134.633L55.5268 135.345L55.6169 135.32L55.426 134.609Z" fill="#974245"/>
</g>
</g>
<g id="Group_56">
<path id="Vector_104" d="M84.2809 147.623C84.2436 147.697 84.1969 147.763 84.1503 147.828L83.8705 148.248C83.488 148.817 82.919 149.227 82.2566 149.414C82.2193 149.423 82.182 149.432 82.1447 149.442L79.8779 149.983L78.8984 146.625C79.8033 146.513 80.7361 146.401 81.6876 146.279L84.4955 140.972C84.4955 140.972 84.4955 138.714 84.8033 138.649C85.1111 138.574 85.363 139.964 85.363 139.964C85.363 139.964 86.5757 138.126 86.9581 138.126C87.3406 138.126 87.238 138.649 87.238 138.649C87.238 138.649 87.5925 138.21 87.807 138.416C87.919 138.528 87.9003 138.919 87.9003 138.919C87.9003 138.919 88.0402 138.789 88.3108 138.901C88.8518 139.115 87.154 143.024 84.2809 147.623Z" fill="#FFBA9A"/>
<path id="Vector_105" opacity="0.2" d="M84.2801 147.623C84.2428 147.698 84.1961 147.763 84.1495 147.828L83.8696 148.248C83.4872 148.817 82.9181 149.227 82.2558 149.414C82.1999 149.255 82.1719 149.097 82.1719 148.929C82.1719 148.117 82.8249 147.474 83.6271 147.474C83.8603 147.464 84.0842 147.52 84.2801 147.623Z" fill="#FF5C33"/>
<g id="Group_57">
<path id="Vector_106" d="M85.617 141.241L85.5703 141.157C85.9341 140.943 86.0088 140.663 85.8129 140.281L85.8968 140.234C86.1114 140.672 86.0181 141.008 85.617 141.241Z" fill="#974245"/>
<path id="Vector_107" d="M86.8769 139.376L86.793 139.339L87.2407 138.508L87.3247 138.555L86.8769 139.376Z" fill="#974245"/>
<path id="Vector_108" d="M87.5097 139.628L87.4258 139.581L87.8362 138.788L87.9202 138.825L87.5097 139.628Z" fill="#974245"/>
<path id="Vector_109" d="M87.9106 139.721L87.8359 139.665L88.2184 139.04L88.3024 139.087L87.9106 139.721Z" fill="#974245"/>
</g>
</g>
<path id="Vector_110" d="M61.3269 149.095L61.207 149.238L65.0595 152.469L65.1794 152.326L61.3269 149.095Z" fill="#001F40"/>
<path id="Vector_111" d="M75.5694 154.302L75.3828 154.293L75.6627 148.92L75.8492 148.929L75.5694 154.302Z" fill="#001F40"/>
<path id="Vector_112" d="M70.729 150.244C70.1227 150.244 69.4977 149.974 69.0312 149.489L69.1618 149.358C69.6469 149.862 70.2999 150.114 70.9249 150.048C71.4473 149.993 71.8951 149.694 72.1842 149.218L72.3428 149.312C72.0257 149.834 71.5312 150.16 70.9436 150.226C70.8783 150.235 70.8036 150.244 70.729 150.244Z" fill="#001F40"/>
</g>
<g id="Group_58">
<path id="Vector_113" d="M70.7665 148.732C70.0202 148.816 69.3486 148.284 69.2646 147.538L68.9102 144.339L71.6061 144.04L71.9605 147.24C72.0445 147.977 71.5128 148.648 70.7665 148.732Z" fill="#FFBA9A"/>
<path id="Vector_114" d="M69.8125 145.542C70.4282 146.251 71.1371 146.755 71.9487 146.969L71.7528 145.244L69.8125 145.542Z" fill="#001F40"/>
<path id="Vector_115" d="M73.0406 142.081C73.0406 142.081 73.563 145.477 72.369 145.915C71.2589 146.326 69.8037 145.542 69.8037 145.542L68.8242 142.687L70.0929 141.531L73.0406 142.081Z" fill="#FFBA9A"/>
<path id="Vector_116" d="M69.348 143.732C69.4133 143.079 69.6745 142.52 70.3368 142.156C72.2677 142.939 73.4711 142.342 74.3386 141.092C74.3386 141.092 73.2379 141.326 72.5663 140.897C71.9039 140.467 70.1875 139.217 69.1054 141.027C67.5942 141.727 67.9114 142.949 68.5271 143.732H69.348Z" fill="#001F40"/>
<g id="Group_59">
<path id="Vector_117" d="M69.4541 144.693C69.7884 144.5 69.8773 144.028 69.6527 143.641C69.428 143.253 68.9749 143.095 68.6405 143.289C68.3062 143.483 68.2173 143.954 68.4419 144.342C68.6666 144.73 69.1197 144.887 69.4541 144.693Z" fill="#FFBA9A"/>
<path id="Vector_118" d="M69.1613 144.34C69.1427 144.041 69.0121 143.836 68.7695 143.715L68.8535 143.547C69.152 143.696 69.3199 143.957 69.3386 144.321L69.1613 144.34Z" fill="#001F40"/>
</g>
</g>
</g>
<g id="Group_60">
<g id="Group_61">
<path id="Vector_119" d="M67.8528 115.337C71.4255 115.337 74.3173 118.229 74.3173 121.801C74.3173 124.301 72.8901 126.475 70.8099 127.548L71.4535 130.878L69.1494 128.135C68.7297 128.219 68.2912 128.266 67.8435 128.266C64.2707 128.266 61.3789 125.374 61.3789 121.801C61.3882 118.238 64.28 115.337 67.8528 115.337Z" fill="white"/>
<path id="Vector_120" d="M71.7815 131.559L69.0856 128.35C68.6845 128.425 68.2647 128.462 67.8542 128.462C64.1882 128.462 61.2031 125.477 61.2031 121.811C61.2031 118.145 64.1882 115.16 67.8542 115.16C71.5203 115.16 74.5054 118.145 74.5054 121.811C74.5054 124.264 73.1714 126.484 71.0259 127.66L71.7815 131.559ZM69.2255 127.94L71.1378 130.216L70.6061 127.454L70.7274 127.389C72.8263 126.307 74.1322 124.162 74.1322 121.811C74.1322 118.35 71.3151 115.533 67.8542 115.533C64.3934 115.533 61.5763 118.35 61.5763 121.811C61.5763 125.272 64.3934 128.089 67.8542 128.089C68.2833 128.089 68.7031 128.042 69.1229 127.958L69.2255 127.94Z" fill="#95BEFF"/>
</g>
<g id="Group_62">
<path id="Vector_121" d="M64.8384 122.864C65.3382 122.864 65.7433 122.459 65.7433 121.959C65.7433 121.459 65.3382 121.054 64.8384 121.054C64.3387 121.054 63.9336 121.459 63.9336 121.959C63.9336 122.459 64.3387 122.864 64.8384 122.864Z" fill="#95BEFF"/>
<path id="Vector_122" d="M67.8502 122.864C68.3499 122.864 68.755 122.459 68.755 121.959C68.755 121.459 68.3499 121.054 67.8502 121.054C67.3504 121.054 66.9453 121.459 66.9453 121.959C66.9453 122.459 67.3504 122.864 67.8502 122.864Z" fill="#95BEFF"/>
<path id="Vector_123" d="M70.8658 122.864C71.3655 122.864 71.7706 122.459 71.7706 121.959C71.7706 121.459 71.3655 121.054 70.8658 121.054C70.366 121.054 69.9609 121.459 69.9609 121.959C69.9609 122.459 70.366 122.864 70.8658 122.864Z" fill="#95BEFF"/>
</g>
</g>
</g>
<g id="Group_63">
<g id="Group_64">
<g id="Group_65">
<path id="Vector_124" d="M167.411 140.757L163.521 148.593L160.77 150.542L162.346 152.576C163.064 152.259 163.755 151.96 164.286 151.727C164.939 151.438 165.527 151.009 166.012 150.477L168.895 147.305L167.411 140.757Z" fill="#FF5C33"/>
<path id="Vector_125" d="M159.734 151.279C159.734 151.279 157.169 151.214 157.244 151.979C157.318 152.697 158.97 153.145 158.97 153.145C158.97 153.145 158.055 154.134 158.373 154.153C158.634 154.162 160.574 153.35 162.337 152.585L160.761 150.552L159.734 151.279Z" fill="#FFBA9A"/>
</g>
<g id="Group_66">
<path id="Vector_126" d="M175.361 179.339L175.296 184.489H169.195L172.022 181.979L172.339 179.087L175.361 179.339Z" fill="#001F40"/>
<path id="Vector_127" d="M172.144 181.836L171.887 182.105L172.831 183.007L173.089 182.738L172.144 181.836Z" fill="white"/>
</g>
<g id="Group_67">
<path id="Vector_128" d="M177.711 158.984L182.487 157.053L184.838 162.678L181.433 161.036L178.644 161.867L177.711 158.984Z" fill="#001F40"/>
<path id="Vector_129" d="M181.721 159.743L181.254 160.962L181.602 161.096L182.069 159.876L181.721 159.743Z" fill="white"/>
</g>
<path id="Vector_130" d="M166.031 152.763L170.817 179.983L176.106 179.797L172.86 149.386L166.031 152.763Z" fill="#007BFF"/>
<path id="Vector_131" d="M169.305 151.382L169.78 165.627C169.808 166.457 170.293 167.203 171.049 167.558C171.711 167.875 172.476 167.847 173.111 167.483L179.463 163.845L179.174 158.201L175.564 159.545L175.545 150.767L169.305 151.382Z" fill="#007BFF"/>
<g id="Group_68">
<path id="Vector_132" d="M182.291 142.398L177.197 139.413C176.656 139.096 176.059 138.9 175.444 138.825L172.16 138.434L169.436 139.292C167.832 139.795 166.712 141.232 166.61 142.911L166.031 152.762L175.528 150.766L176.283 143.947L181.768 146.521C182.813 147.044 184.082 146.689 184.707 145.691C185.957 143.685 188 140.346 189.306 137.771L186.19 136.661L182.291 142.398Z" fill="#FF5C33"/>
<path id="Vector_133" d="M189.904 134.087C189.904 134.087 190.063 133.676 189.848 133.546C189.643 133.415 189.41 133.648 189.41 133.648C189.41 133.648 189.643 133.079 189.307 132.977C188.971 132.874 187.684 134.758 187.684 134.758C187.684 134.758 187.525 133.574 187.19 133.592C186.854 133.611 186.648 135.99 186.648 135.99L186.191 136.661L189.307 137.771C190.072 136.26 190.585 135.01 190.548 134.451C190.501 133.826 189.904 134.087 189.904 134.087Z" fill="#FFBA9A"/>
<g id="Group_69">
<path id="Vector_134" d="M187.833 135.971L187.777 135.897C188.113 135.645 188.15 135.346 187.908 135.001L187.983 134.945C188.262 135.337 188.206 135.682 187.833 135.971Z" fill="#974245"/>
<path id="Vector_135" d="M189.02 134.283L188.945 134.227L189.477 133.462L189.552 133.518L189.02 134.283Z" fill="#974245"/>
<path id="Vector_136" d="M189.892 133.968L189.383 134.576L189.454 134.636L189.963 134.027L189.892 133.968Z" fill="#974245"/>
<path id="Vector_137" d="M190.164 134.346L189.707 134.924L189.78 134.982L190.237 134.404L190.164 134.346Z" fill="#974245"/>
</g>
</g>
<g id="Group_70">
<path id="Vector_138" d="M174.705 134.601C174.621 135.814 173.586 136.962 172.261 136.868C170.936 136.775 169.462 135.385 169.546 134.172C169.63 132.96 170.992 132.335 172.317 132.381C174.173 132.437 174.789 133.389 174.705 134.601Z" fill="#E8950C"/>
<path id="Vector_139" d="M172.036 140.124C171.346 140.077 170.823 139.48 170.87 138.79L171.066 135.945L173.566 136.113L173.37 138.958C173.333 139.648 172.726 140.171 172.036 140.124Z" fill="#FFBA9A"/>
<path id="Vector_140" d="M172.783 137.633C172.214 138.23 171.599 138.688 170.871 138.79L170.974 137.438L172.783 137.633Z" fill="#001F40"/>
<path id="Vector_141" d="M170.079 134.284C170.079 134.284 169.594 137.512 170.695 137.857C171.796 138.202 173.167 137.503 173.167 137.503L173.437 135.058L173.129 133.473L170.079 134.284Z" fill="#FFBA9A"/>
<path id="Vector_142" d="M173.389 136.048C173.081 135.702 172.773 135.124 172.698 134.536C171.905 134.882 170.944 134.919 169.844 134.704L170.17 133.688L172.586 133.23L173.827 133.585L173.389 136.048Z" fill="#E8950C"/>
<g id="Group_71">
<path id="Vector_143" d="M174.127 136.415C174.353 136.128 174.334 135.735 174.083 135.537C173.832 135.339 173.445 135.412 173.219 135.699C172.992 135.986 173.012 136.38 173.263 136.577C173.514 136.775 173.901 136.702 174.127 136.415Z" fill="#FFBA9A"/>
<path id="Vector_144" d="M173.511 136.355L173.324 136.346C173.362 135.87 173.66 135.758 173.903 135.749L173.912 135.936C173.66 135.936 173.539 136.066 173.511 136.355Z" fill="#001F40"/>
</g>
<path id="Vector_145" d="M175.801 133.389C176.3 132.689 176.137 131.716 175.437 131.216C174.736 130.717 173.763 130.88 173.264 131.581C172.764 132.281 172.927 133.254 173.628 133.753C174.329 134.253 175.301 134.09 175.801 133.389Z" fill="#E8950C"/>
</g>
<path id="Vector_146" d="M166.132 152.726L165.945 152.707L166.645 142.026L166.832 142.045L166.132 152.726Z" fill="#001F40"/>
<path id="Vector_147" d="M178.78 145.198L174.723 143.145L174.807 142.978L178.864 145.03L178.78 145.198Z" fill="#001F40"/>
<path id="Vector_148" d="M171.823 141.447C171.748 141.447 171.674 141.438 171.599 141.429C171.077 141.336 170.676 140.925 170.508 140.3L170.685 140.253C170.834 140.804 171.179 141.168 171.627 141.242C172.168 141.336 172.765 141.018 173.194 140.412L173.344 140.515C172.933 141.102 172.364 141.447 171.823 141.447Z" fill="#001F40"/>
<path id="Vector_149" d="M171.934 167.847C171.644 167.847 171.402 167.8 171.197 167.735C170.329 167.446 169.919 166.709 169.825 166.364C169.452 165.002 169.266 154.181 169.266 153.714H169.452C169.452 153.826 169.639 164.974 170.012 166.317C170.114 166.681 170.525 167.315 171.262 167.558C172.185 167.865 173.351 167.502 174.648 166.513L174.76 166.662C173.557 167.576 172.624 167.847 171.934 167.847Z" fill="#001F40"/>
<path id="Vector_150" d="M179.125 158.107L172.676 160.461L172.74 160.637L179.189 158.282L179.125 158.107Z" fill="#001F40"/>
</g>
<g id="Group_72">
<g id="Group_73">
<path id="Vector_151" d="M178.187 109.554C174.614 109.554 171.723 112.446 171.723 116.018C171.723 118.518 173.15 120.692 175.23 121.765L174.586 125.095L176.891 122.352C177.31 122.436 177.749 122.483 178.197 122.483C181.769 122.483 184.661 119.591 184.661 116.018C184.652 112.455 181.76 109.554 178.187 109.554Z" fill="white"/>
<path id="Vector_152" d="M174.259 125.776L175.015 121.867C172.86 120.701 171.535 118.472 171.535 116.018C171.535 112.352 174.52 109.367 178.186 109.367C181.852 109.367 184.837 112.352 184.837 116.018C184.837 119.684 181.852 122.669 178.186 122.669C177.776 122.669 177.356 122.632 176.955 122.557L174.259 125.776ZM178.186 109.74C174.725 109.74 171.908 112.557 171.908 116.018C171.908 118.378 173.214 120.515 175.313 121.597L175.434 121.662L174.903 124.423L176.815 122.147L176.927 122.166C177.337 122.25 177.767 122.296 178.196 122.296C181.656 122.296 184.474 119.479 184.474 116.018C184.474 112.557 181.647 109.74 178.186 109.74Z" fill="#95BEFF"/>
</g>
<g id="Group_74">
<path id="Vector_153" d="M175.17 116.903C175.67 116.903 176.075 116.498 176.075 115.999C176.075 115.499 175.67 115.094 175.17 115.094C174.671 115.094 174.266 115.499 174.266 115.999C174.266 116.498 174.671 116.903 175.17 116.903Z" fill="#95BEFF"/>
<path id="Vector_154" d="M178.182 116.903C178.682 116.903 179.087 116.498 179.087 115.999C179.087 115.499 178.682 115.094 178.182 115.094C177.682 115.094 177.277 115.499 177.277 115.999C177.277 116.498 177.682 116.903 178.182 116.903Z" fill="#95BEFF"/>
<path id="Vector_155" d="M181.198 116.903C181.698 116.903 182.103 116.498 182.103 115.999C182.103 115.499 181.698 115.094 181.198 115.094C180.698 115.094 180.293 115.499 180.293 115.999C180.293 116.498 180.698 116.903 181.198 116.903Z" fill="#95BEFF"/>
</g>
</g>
</g>
<path id="Vector_156" d="M221 193.946H21V194.319H221V193.946Z" fill="#001F40"/>
</g>
</g>
</g>
</svg>
